<?xml version="1.0" encoding="UTF-8" standalone="no"?>
<svg
   xmlns:dc="http://purl.org/dc/elements/1.1/"
   xmlns:cc="http://creativecommons.org/ns#"
   xmlns:rdf="http://www.w3.org/1999/02/22-rdf-syntax-ns#"
   xmlns:svg="http://www.w3.org/2000/svg"
   xmlns="http://www.w3.org/2000/svg"
   xmlns:sodipodi="http://sodipodi.sourceforge.net/DTD/sodipodi-0.dtd"
   xmlns:inkscape="http://www.inkscape.org/namespaces/inkscape"
   width="70.780mm"
   height="128.400mm"
   version="1.1"
   viewBox="0 0 70.780 128.400"
   id="svg2"
   inkscape:version="0.48.2 r9819"
   sodipodi:docname="labels.svg">
  <metadata
     id="metadata66">
    <rdf:RDF>
      <cc:Work
         rdf:about="">
        <dc:format>image/svg+xml</dc:format>
        <dc:type
           rdf:resource="http://purl.org/dc/dcmitype/StillImage" />
      </cc:Work>
    </rdf:RDF>
  </metadata>
  <sodipodi:namedview
     pagecolor="#ffffff"
     bordercolor="#666666"
     borderopacity="1"
     objecttolerance="10"
     gridtolerance="10"
     guidetolerance="10"
     inkscape:pageopacity="0"
     inkscape:pageshadow="2"
     inkscape:window-width="1324"
     inkscape:window-height="733"
     id="namedview64"
     showgrid="false"
     inkscape:zoom="1.04"
     inkscape:cx="61.783991"
     inkscape:cy="211.4579"
     inkscape:window-x="0"
     inkscape:window-y="0"
     inkscape:window-maximized="0"
     inkscape:current-layer="svg2" />
  <desc
     id="desc4">Created with the Front Panel Designer by the export of the file 'temps_utile.fpd'.</desc>
  <defs
     id="defs6">
    <pattern
       id="revside-fill"
       x="1"
       y="1"
       width="1.5"
       height="1.5"
       patternUnits="userSpaceOnUse">
      <line
         x1="0"
         y1="0"
         x2="1"
         y2="1"
         style="stroke-width:0.2; stroke:black; stroke-dasharray:none;"
         id="line9" />
      <line
         x1="0"
         y1="1"
         x2="1"
         y2="0"
         style="stroke-width:0.2; stroke:black; stroke-dasharray:none;"
         id="line11" />
    </pattern>
    <pattern
       id="revside-fill-e0e0e0"
       x="1"
       y="1"
       width="1.5"
       height="1.5"
       patternUnits="userSpaceOnUse">
      <line
         x1="0"
         y1="0"
         x2="1.5"
         y2="1.5"
         style="stroke-width:0.2; stroke:#e0e0e0; stroke-dasharray:none;"
         id="line14" />
      <line
         x1="0"
         y1="1.5"
         x2="1.5"
         y2="0"
         style="stroke-width:0.2; stroke:#e0e0e0; stroke-dasharray:none;"
         id="line16" />
    </pattern>
  </defs>
  <g
     transform="scale(1,-1) translate(0, -128.400)"
     fill-rule="evenodd"
     style="stroke-linecap:round; stroke-linejoin:round; stroke-opacity:1.0; stroke-opacity:1.0;"
     id="g18">
    <path
       d="M70.780 128.400  L0.000 128.400 L0.000 128.400 L0.000 0.000 L0.000 0.000 L70.780 0.000 L70.780 0.000 L70.780 128.400 L70.780 128.400z"
       fill="#cccccc"
       vector-effect="non-scaling-stroke"
       stroke="#000000"
       stroke-width="0.100mm"
       id="path20" />
    <circle
       cx="8.500"
       cy="35.000"
       r="3.150"
       fill="#ffffff"
       vector-effect="non-scaling-stroke"
       stroke="#000000"
       stroke-width="0.100mm"
       id="circle22"
       d="m 11.65,35 c 0,1.739697 -1.410303,3.15 -3.15,3.15 -1.739697,0 -3.1500001,-1.410303 -3.1500001,-3.15 0,-1.739697 1.4103031,-3.15 3.1500001,-3.15 1.739697,0 3.15,1.410303 3.15,3.15 z"
       style="stroke-width:0.84666671999999998;stroke-miterlimit:4;stroke-dasharray:none;fill:#00ff00" />
    <circle
       cx="18.000"
       cy="35.000"
       r="3.150"
       fill="#ffffff"
       vector-effect="non-scaling-stroke"
       stroke="#000000"
       stroke-width="0.100mm"
       id="circle24"
       d="m 21.15,35 c 0,1.739697 -1.410303,3.15 -3.15,3.15 -1.739697,0 -3.15,-1.410303 -3.15,-3.15 0,-1.739697 1.410303,-3.15 3.15,-3.15 1.739697,0 3.15,1.410303 3.15,3.15 z"
       style="fill:#ffff00" />
    <circle
       cx="27.500"
       cy="35.000"
       r="3.150"
       fill="#ffffff"
       vector-effect="non-scaling-stroke"
       stroke="#000000"
       stroke-width="0.100mm"
       id="circle26"
       d="m 30.65,35 c 0,1.739697 -1.410303,3.15 -3.15,3.15 -1.739697,0 -3.15,-1.410303 -3.15,-3.15 0,-1.739697 1.410303,-3.15 3.15,-3.15 1.739697,0 3.15,1.410303 3.15,3.15 z"
       style="fill:#ffff00" />
    <circle
       cx="42.500"
       cy="35.000"
       r="3.150"
       fill="#ffffff"
       vector-effect="non-scaling-stroke"
       stroke="#000000"
       stroke-width="0.100mm"
       id="circle28"
       d="m 45.65,35 c 0,1.739697 -1.410303,3.15 -3.15,3.15 -1.739697,0 -3.15,-1.410303 -3.15,-3.15 0,-1.739697 1.410303,-3.15 3.15,-3.15 1.739697,0 3.15,1.410303 3.15,3.15 z"
       style="fill:#00ffff" />
    <circle
       cx="52.000"
       cy="35.000"
       r="3.150"
       fill="#ffffff"
       vector-effect="non-scaling-stroke"
       stroke="#000000"
       stroke-width="0.100mm"
       id="circle30"
       d="m 55.15,35 c 0,1.739697 -1.410303,3.15 -3.15,3.15 -1.739697,0 -3.15,-1.410303 -3.15,-3.15 0,-1.739697 1.410303,-3.15 3.15,-3.15 1.739697,0 3.15,1.410303 3.15,3.15 z"
       style="fill:#00ffff" />
    <circle
       cx="61.500"
       cy="35.000"
       r="3.150"
       fill="#ffffff"
       vector-effect="non-scaling-stroke"
       stroke="#000000"
       stroke-width="0.100mm"
       id="circle32"
       d="m 64.65,35 c 0,1.739697 -1.410303,3.15 -3.15,3.15 -1.739697,0 -3.15,-1.410303 -3.15,-3.15 0,-1.739697 1.410303,-3.15 3.15,-3.15 1.739697,0 3.15,1.410303 3.15,3.15 z"
       style="fill:#00ffff" />
    <circle
       cx="56.800"
       cy="66.500"
       r="4.500"
       fill="#ffffff"
       vector-effect="non-scaling-stroke"
       stroke="#000000"
       stroke-width="0.100mm"
       id="circle34"
       d="m 61.299999,66.5 c 0,2.485281 -2.014718,4.5 -4.5,4.5 -2.485281,0 -4.5,-2.014719 -4.5,-4.5 0,-2.485281 2.014719,-4.5 4.5,-4.5 2.485282,0 4.5,2.014719 4.5,4.5 z"
       style="fill:#333333" />
    <circle
       cx="12.900"
       cy="66.500"
       r="4.500"
       fill="#ffffff"
       vector-effect="non-scaling-stroke"
       stroke="#000000"
       stroke-width="0.100mm"
       id="circle36"
       d="m 17.4,66.5 c 0,2.485281 -2.014719,4.5 -4.5,4.5 -2.485282,0 -4.5000004,-2.014719 -4.5000004,-4.5 0,-2.485281 2.0147184,-4.5 4.5000004,-4.5 2.485281,0 4.5,2.014719 4.5,4.5 z"
       style="fill:#333333" />
    <circle
       cx="56.800"
       cy="90.600"
       r="3.750"
       fill="#ffffff"
       vector-effect="non-scaling-stroke"
       stroke="#000000"
       stroke-width="0.100mm"
       id="circle38"
       d="m 60.549999,90.599998 c 0,2.071068 -1.678932,3.75 -3.75,3.75 -2.071068,0 -3.75,-1.678932 -3.75,-3.75 0,-2.071067 1.678932,-3.75 3.75,-3.75 2.071068,0 3.75,1.678933 3.75,3.75 z"
       style="fill:#800000" />
    <circle
       cx="56.800"
       cy="109.400"
       r="3.750"
       fill="#ffffff"
       vector-effect="non-scaling-stroke"
       stroke="#000000"
       stroke-width="0.100mm"
       id="circle40"
       d="m 60.549999,109.4 c 0,2.07107 -1.678932,3.75 -3.75,3.75 -2.071068,0 -3.75,-1.67893 -3.75,-3.75 0,-2.07107 1.678932,-3.75 3.75,-3.75 2.071068,0 3.75,1.67893 3.75,3.75 z"
       style="fill:#800000" />
    <rect
       x="7.684"
       y="91.629"
       width="33.000"
       height="17.500"
       rx="1.500"
       fill="#ffffff"
       vector-effect="non-scaling-stroke"
       stroke="#000000"
       stroke-width="0.100mm"
       id="rect42" />
    <circle
       cx="8.500"
       cy="23.000"
       r="3.150"
       fill="#ffffff"
       vector-effect="non-scaling-stroke"
       stroke="#000000"
       stroke-width="0.100mm"
       id="circle44"
       d="m 11.65,23 c 0,1.739697 -1.410303,3.15 -3.15,3.15 -1.739697,0 -3.1500001,-1.410303 -3.1500001,-3.15 0,-1.739697 1.4103031,-3.15 3.1500001,-3.15 1.739697,0 3.15,1.410303 3.15,3.15 z"
       style="stroke-width:0.84666671999999998;stroke-miterlimit:4;stroke-dasharray:none;fill:#00ff00" />
    <circle
       cx="18.000"
       cy="23.000"
       r="3.150"
       fill="#ffffff"
       vector-effect="non-scaling-stroke"
       stroke="#000000"
       stroke-width="0.100mm"
       id="circle46"
       d="m 21.15,23 c 0,1.739697 -1.410303,3.15 -3.15,3.15 -1.739697,0 -3.15,-1.410303 -3.15,-3.15 0,-1.739697 1.410303,-3.15 3.15,-3.15 1.739697,0 3.15,1.410303 3.15,3.15 z"
       style="fill:#ffff00" />
    <circle
       cx="27.500"
       cy="23.000"
       r="3.150"
       fill="#ffffff"
       vector-effect="non-scaling-stroke"
       stroke="#000000"
       stroke-width="0.100mm"
       id="circle48"
       d="m 30.65,23 c 0,1.739697 -1.410303,3.15 -3.15,3.15 -1.739697,0 -3.15,-1.410303 -3.15,-3.15 0,-1.739697 1.410303,-3.15 3.15,-3.15 1.739697,0 3.15,1.410303 3.15,3.15 z"
       style="fill:#ffff00" />
    <circle
       cx="42.500"
       cy="23.000"
       r="3.150"
       fill="#ffffff"
       vector-effect="non-scaling-stroke"
       stroke="#000000"
       stroke-width="0.100mm"
       id="circle50"
       d="m 45.65,23 c 0,1.739697 -1.410303,3.15 -3.15,3.15 -1.739697,0 -3.15,-1.410303 -3.15,-3.15 0,-1.739697 1.410303,-3.15 3.15,-3.15 1.739697,0 3.15,1.410303 3.15,3.15 z"
       style="stroke-width:1.00358228000000005;stroke-miterlimit:4;stroke-dasharray:none;fill:#00ffff" />
    <circle
       cx="52.000"
       cy="23.000"
       r="3.150"
       fill="#ffffff"
       vector-effect="non-scaling-stroke"
       stroke="#000000"
       stroke-width="0.100mm"
       id="circle52"
       d="m 55.15,23 c 0,1.739697 -1.410303,3.15 -3.15,3.15 -1.739697,0 -3.15,-1.410303 -3.15,-3.15 0,-1.739697 1.410303,-3.15 3.15,-3.15 1.739697,0 3.15,1.410303 3.15,3.15 z"
       style="fill:#00ffff" />
    <circle
       cx="61.500"
       cy="23.000"
       r="3.150"
       fill="#ffffff"
       vector-effect="non-scaling-stroke"
       stroke="#000000"
       stroke-width="0.100mm"
       id="circle54"
       d="m 64.65,23 c 0,1.739697 -1.410303,3.15 -3.15,3.15 -1.739697,0 -3.15,-1.410303 -3.15,-3.15 0,-1.739697 1.410303,-3.15 3.15,-3.15 1.739697,0 3.15,1.410303 3.15,3.15 z"
       style="fill:#00ffff" />
    <path
       d="M4.669 3.983  A1.000,1.000 0 0,0 5.612,4.650 L9.288 4.650 A1.000,1.000 0 0,0 10.231,3.983 A2.950,2.950 0 0,0 10.231,2.017 A1.000,1.000 0 0,0 9.288,1.350 L5.612 1.350 A1.000,1.000 0 0,0 4.669,2.017 A2.950,2.950 0 0,0 4.669,3.983z"
       fill="#ffffff"
       vector-effect="non-scaling-stroke"
       stroke="#000000"
       stroke-width="0.100mm"
       id="path56" />
    <path
       d="M4.669 126.383  A1.000,1.000 0 0,0 5.612,127.050 L9.288 127.050 A1.000,1.000 0 0,0 10.231,126.383 A2.950,2.950 0 0,0 10.231,124.417 A1.000,1.000 0 0,0 9.288,123.750 L5.612 123.750 A1.000,1.000 0 0,0 4.669,124.417 A2.950,2.950 0 0,0 4.669,126.383z"
       fill="#ffffff"
       vector-effect="non-scaling-stroke"
       stroke="#000000"
       stroke-width="0.100mm"
       id="path58" />
    <path
       d="M60.549 3.983  A1.000,1.000 0 0,0 61.492,4.650 L65.168 4.650 A1.000,1.000 0 0,0 66.111,3.983 A2.950,2.950 0 0,0 66.111,2.017 A1.000,1.000 0 0,0 65.168,1.350 L61.492 1.350 A1.000,1.000 0 0,0 60.549,2.017 A2.950,2.950 0 0,0 60.549,3.983z"
       fill="#ffffff"
       vector-effect="non-scaling-stroke"
       stroke="#000000"
       stroke-width="0.100mm"
       id="path60" />
    <path
       d="M60.549 126.383  A1.000,1.000 0 0,0 61.492,127.050 L65.168 127.050 A1.000,1.000 0 0,0 66.111,126.383 A2.950,2.950 0 0,0 66.111,124.417 A1.000,1.000 0 0,0 65.168,123.750 L61.492 123.750 A1.000,1.000 0 0,0 60.549,124.417 A2.950,2.950 0 0,0 60.549,126.383z"
       fill="#ffffff"
       vector-effect="non-scaling-stroke"
       stroke="#000000"
       stroke-width="0.100mm"
       id="path62" />
  </g>
  <text
     xml:space="preserve"
     style="font-size:40px;font-style:normal;font-variant:normal;font-weight:normal;font-stretch:normal;text-align:start;line-height:125%;letter-spacing:0px;word-spacing:0px;writing-mode:lr-tb;text-anchor:start;fill:#000000;fill-opacity:1;stroke:none;font-family:Century Gothic;-inkscape-font-specification:Century Gothic"
     x="267.41391"
     y="75.082886"
     id="text3043"
     sodipodi:linespacing="125%"
     transform="matrix(0.28222224,0,0,0.28222224,-1.7970038e-6,0)"><tspan
       sodipodi:role="line"
       id="tspan3045"
       x="267.41391"
       y="75.082886"
       style="font-size:14px">channel select</tspan></text>
  <path
     style="fill:none;stroke:#000000;stroke-width:1px;stroke-linecap:butt;stroke-linejoin:miter;stroke-opacity:1"
     d="m 226.08696,68.00408 34.78261,0"
     id="path3047"
     inkscape:connector-curvature="0"
     transform="matrix(0.28222224,0,0,0.28222224,-1.7970038e-6,0)" />
  <path
     style="fill:none;stroke:#000000;stroke-width:1px;stroke-linecap:butt;stroke-linejoin:miter;stroke-opacity:1"
     d="m 231.15942,60.757703 -8.69565,7.971015 12.31884,4.347826 z"
     id="path3049"
     inkscape:connector-curvature="0"
     transform="matrix(0.28222224,0,0,0.28222224,-1.7970038e-6,0)" />
  <path
     style="fill:none;stroke:#000000;stroke-width:1px;stroke-linecap:butt;stroke-linejoin:miter;stroke-opacity:1"
     d="m 227.53623,133.94611 57.24638,0 z"
     id="path3051"
     inkscape:connector-curvature="0"
     transform="matrix(0.28222224,0,0,0.28222224,-1.7970038e-6,0)" />
  <path
     style="fill:none;stroke:#000000;stroke-width:1px;stroke-linecap:butt;stroke-linejoin:miter;stroke-opacity:1"
     d="m 236.23188,128.14901 -11.5942,5.07246 9.42029,5.07247 z"
     id="path3053"
     inkscape:connector-curvature="0"
     transform="matrix(0.28222224,0,0,0.28222224,-1.7970038e-6,0)" />
  <text
     xml:space="preserve"
     style="font-size:40px;font-style:normal;font-variant:normal;font-weight:normal;font-stretch:normal;text-align:start;line-height:125%;letter-spacing:0px;word-spacing:0px;writing-mode:lr-tb;text-anchor:start;fill:#000000;fill-opacity:1;stroke:none;font-family:Century Gothic;-inkscape-font-specification:Century Gothic"
     x="289.13043"
     y="136.12003"
     id="text3055"
     sodipodi:linespacing="125%"
     transform="matrix(0.28222224,0,0,0.28222224,-1.7970038e-6,0)"><tspan
       sodipodi:role="line"
       id="tspan3057"
       x="289.13043"
       y="136.12003"
       style="font-size:14px">bpm/menu</tspan></text>
  <text
     xml:space="preserve"
     style="font-size:40px;font-style:normal;font-variant:normal;font-weight:normal;font-stretch:normal;text-align:start;line-height:125%;letter-spacing:0px;word-spacing:0px;writing-mode:lr-tb;text-anchor:start;fill:#000000;fill-opacity:1;stroke:none;font-family:Century Gothic;-inkscape-font-specification:Century Gothic"
     x="268.84058"
     y="225.25046"
     id="text3059"
     sodipodi:linespacing="125%"
     transform="matrix(0.28222224,0,0,0.28222224,-1.7970038e-6,0)"><tspan
       sodipodi:role="line"
       id="tspan3061"
       x="268.84058"
       y="225.25046"
       style="font-size:13.99999998px">param select</tspan></text>
  <path
     style="fill:none;stroke:#000000;stroke-width:1px;stroke-linecap:butt;stroke-linejoin:miter;stroke-opacity:1"
     d="m 228.26087,221.62727 34.78261,-0.72464"
     id="path3063"
     inkscape:connector-curvature="0"
     transform="matrix(0.28222224,0,0,0.28222224,-1.7970038e-6,0)" />
  <path
     style="fill:none;stroke:#000000;stroke-width:1px;stroke-linecap:butt;stroke-linejoin:miter;stroke-opacity:1"
     d="m 236.23188,213.65625 -10.14492,7.24638 13.04347,7.97102 z"
     id="path3065"
     inkscape:connector-curvature="0"
     transform="matrix(0.28222224,0,0,0.28222224,-1.7970038e-6,0)" />
  <text
     xml:space="preserve"
     style="font-size:11.28888988px;font-style:normal;font-variant:normal;font-weight:normal;font-stretch:normal;text-align:start;line-height:125%;letter-spacing:0px;word-spacing:0px;writing-mode:lr-tb;text-anchor:start;fill:#000000;fill-opacity:1;stroke:none;font-family:Century Gothic;-inkscape-font-specification:Century Gothic"
     x="-33.118397"
     y="61.09779"
     id="text3067"
     sodipodi:linespacing="125%"><tspan
       sodipodi:role="line"
       id="tspan3069"
       x="-33.118397"
       y="61.09779"
       style="font-size:3.66888905px">mode select</tspan></text>
  <path
     style="fill:none;stroke:#000000;stroke-width:1px;stroke-linecap:butt;stroke-linejoin:miter;stroke-opacity:1"
     d="m -32.793358,212.59719 50.727226,3.58677 -8.7107361,-8.19834 -2.0495848,13.32231 8.7107359,-5.63636 0,0 0,0"
     id="path3073"
     inkscape:connector-curvature="0"
     transform="matrix(0.28222224,0,0,0.28222224,-1.7970038e-6,0)" />
  <path
     style="fill:none;stroke:#000000;stroke-width:1px;stroke-linecap:butt;stroke-linejoin:miter;stroke-opacity:1"
     d="m 335.82235,353.14212 -102.71162,0 24.1149,-8.93144 -0.89314,22.32861 -23.22176,-13.39717"
     id="path3075"
     inkscape:connector-curvature="0"
     transform="matrix(0.28222224,0,0,0.28222224,-1.7970038e-6,0)" />
  <text
     xml:space="preserve"
     style="font-size:40px;font-style:normal;font-variant:normal;font-weight:normal;font-stretch:normal;text-align:start;line-height:125%;letter-spacing:0px;word-spacing:0px;writing-mode:lr-tb;text-anchor:start;fill:#000000;fill-opacity:1;stroke:none;font-family:Century Gothic;-inkscape-font-specification:Century Gothic"
     x="343.86066"
     y="354.03528"
     id="text3077"
     sodipodi:linespacing="125%"
     transform="matrix(0.28222224,0,0,0.28222224,-1.7970038e-6,0)"><tspan
       sodipodi:role="line"
       id="tspan3079"
       x="343.86066"
       y="354.03528"
       style="font-size:11.99999999px">clock out 1-6</tspan></text>
  <path
     style="fill:none;stroke:#000000;stroke-width:1px;stroke-linecap:butt;stroke-linejoin:miter;stroke-opacity:1"
     d="m 152.72772,394.22677 28.58062,75.02414 0,0"
     id="path3081"
     inkscape:connector-curvature="0"
     transform="matrix(0.28222224,0,0,0.28222224,-1.7970038e-6,0)" />
  <path
     style="fill:none;stroke:#000000;stroke-width:1px;stroke-linecap:butt;stroke-linejoin:miter;stroke-opacity:1"
     d="m 151.83457,398.6925 0,18.75603 17.86289,-9.82459 -16.96974,-13.39717"
     id="path3083"
     inkscape:connector-curvature="0"
     transform="matrix(0.28222224,0,0,0.28222224,-1.7970038e-6,0)"
     sodipodi:nodetypes="cccc" />
  <text
     xml:space="preserve"
     style="font-size:40px;font-style:normal;font-variant:normal;font-weight:normal;font-stretch:normal;text-align:start;line-height:125%;letter-spacing:0px;word-spacing:0px;writing-mode:lr-tb;text-anchor:start;fill:#000000;fill-opacity:1;stroke:none;font-family:Century Gothic;-inkscape-font-specification:Century Gothic"
     x="188.45351"
     y="479.96866"
     id="text3085"
     sodipodi:linespacing="125%"
     transform="matrix(0.28222224,0,0,0.28222224,-1.7970038e-6,0)"><tspan
       sodipodi:role="line"
       id="tspan3087"
       x="188.45351"
       y="479.96866"
       style="font-size:12.99999998px">dac (A14)</tspan></text>
  <path
     style="fill:none;stroke:#000000;stroke-width:1px;stroke-linecap:butt;stroke-linejoin:miter;stroke-opacity:1"
     d="M -69.230769,322.26829 3.8461538,321.30676"
     id="path3857"
     inkscape:connector-curvature="0"
     transform="matrix(0.28222224,0,0,0.28222224,-1.7970038e-6,0)" />
  <path
     style="fill:none;stroke:#000000;stroke-width:1px;stroke-linecap:butt;stroke-linejoin:miter;stroke-opacity:1"
     d="m -8.6538462,313.61445 -0.9615384,14.42307 14.4230769,-5.76923 z"
     id="path3859"
     inkscape:connector-curvature="0"
     transform="matrix(0.28222224,0,0,0.28222224,-1.7970038e-6,0)" />
  <text
     xml:space="preserve"
     style="font-size:40px;font-style:normal;font-variant:normal;font-weight:normal;font-stretch:normal;text-align:start;line-height:125%;letter-spacing:0px;word-spacing:0px;writing-mode:lr-tb;text-anchor:start;fill:#000000;fill-opacity:1;stroke:none;font-family:Century Gothic;-inkscape-font-specification:Century Gothic"
     x="-108.65385"
     y="322.26828"
     id="text3861"
     sodipodi:linespacing="125%"
     transform="matrix(0.28222224,0,0,0.28222224,-1.7970038e-6,0)"><tspan
       sodipodi:role="line"
       id="tspan3863"
       x="-108.65385"
       y="322.26828"
       style="font-size:13px">clk in</tspan></text>
  <text
     sodipodi:linespacing="125%"
     id="text3865"
     y="106.69059"
     x="-30.121799"
     style="font-size:11.28888988px;font-style:normal;font-variant:normal;font-weight:normal;font-stretch:normal;text-align:start;line-height:125%;letter-spacing:0px;word-spacing:0px;writing-mode:lr-tb;text-anchor:start;fill:#000000;fill-opacity:1;stroke:none;font-family:Century Gothic;-inkscape-font-specification:Century Gothic"
     xml:space="preserve"><tspan
       style="font-size:3.66888905px"
       y="106.69059"
       x="-30.121799"
       id="tspan3867"
       sodipodi:role="line">reset </tspan></text>
  <path
     style="fill:none;stroke:#000000;stroke-width:1px;stroke-linecap:butt;stroke-linejoin:miter;stroke-opacity:1"
     d="m -67.307692,372.26829 71.1538458,0 -15.3846158,-7.6923 0,15.38461 13.4615389,-5.76923"
     id="path3871"
     inkscape:connector-curvature="0"
     transform="matrix(0.28222224,0,0,0.28222224,-1.7970038e-6,0)" />
  <path
     style="fill:none;stroke:#000000;stroke-width:1px;stroke-linecap:butt;stroke-linejoin:miter;stroke-opacity:1"
     d="m 81.730769,470.34522 0,-75.96154 L 75,407.84522 l 13.461538,0.96154 -6.730769,-14.42308"
     id="path3873"
     inkscape:connector-curvature="0"
     transform="matrix(0.28222224,0,0,0.28222224,-1.7970038e-6,0)" />
  <text
     xml:space="preserve"
     style="font-size:11.28888988px;font-style:normal;font-variant:normal;font-weight:normal;font-stretch:normal;text-align:start;line-height:125%;letter-spacing:0px;word-spacing:0px;writing-mode:lr-tb;text-anchor:start;fill:#000000;fill-opacity:1;stroke:none;font-family:Century Gothic;-inkscape-font-specification:Century Gothic"
     x="14.11111"
     y="138.16924"
     id="text3875"
     sodipodi:linespacing="125%"><tspan
       sodipodi:role="line"
       id="tspan3877"
       x="14.11111"
       y="138.16924"
       style="font-size:5.0800004px">CV1-4</tspan></text>
  <text
     xml:space="preserve"
     style="font-size:11.28888988px;font-style:normal;font-variant:normal;font-weight:normal;font-stretch:normal;text-align:start;line-height:125%;letter-spacing:0px;word-spacing:0px;writing-mode:lr-tb;text-anchor:start;fill:#000000;fill-opacity:1;stroke:none;font-family:Century Gothic;-inkscape-font-specification:Century Gothic"
     x="19.267094"
     y="7.6414461"
     id="text3879"
     sodipodi:linespacing="125%"><tspan
       sodipodi:role="line"
       id="tspan3881"
       x="19.267094"
       y="7.6414461"
       style="font-size:6.20888948px">temps<tspan
   style="font-size:6.20888948px;font-weight:bold;-inkscape-font-specification:Century Gothic Bold"
   id="tspan3883">utile</tspan></tspan></text>
</svg>
