<?xml version="1.0" encoding="UTF-8" standalone="no"?>
<svg
   xmlns:dc="http://purl.org/dc/elements/1.1/"
   xmlns:cc="http://creativecommons.org/ns#"
   xmlns:rdf="http://www.w3.org/1999/02/22-rdf-syntax-ns#"
   xmlns:svg="http://www.w3.org/2000/svg"
   xmlns="http://www.w3.org/2000/svg"
   xmlns:sodipodi="http://sodipodi.sourceforge.net/DTD/sodipodi-0.dtd"
   xmlns:inkscape="http://www.inkscape.org/namespaces/inkscape"
   width="744.09448"
   height="1052.3622"
   version="1.1"
   viewBox="0 0 210 297.00001"
   id="svg2"
   inkscape:version="0.48.2 r9819"
   sodipodi:docname="labels.svg">
  <metadata
     id="metadata66">
    <rdf:RDF>
      <cc:Work
         rdf:about="">
        <dc:format>image/svg+xml</dc:format>
        <dc:type
           rdf:resource="http://purl.org/dc/dcmitype/StillImage" />
      </cc:Work>
    </rdf:RDF>
  </metadata>
  <sodipodi:namedview
     pagecolor="#ffffff"
     bordercolor="#666666"
     borderopacity="1"
     objecttolerance="10"
     gridtolerance="10"
     guidetolerance="10"
     inkscape:pageopacity="0"
     inkscape:pageshadow="2"
     inkscape:window-width="1324"
     inkscape:window-height="733"
     id="namedview64"
     showgrid="false"
     inkscape:zoom="0.73539105"
     inkscape:cx="61.783991"
     inkscape:cy="374.63639"
     inkscape:window-x="0"
     inkscape:window-y="0"
     inkscape:window-maximized="0"
     inkscape:current-layer="svg2" />
  <desc
     id="desc4">Created with the Front Panel Designer by the export of the file 'temps_utile.fpd'.</desc>
  <defs
     id="defs6">
    <pattern
       id="revside-fill"
       x="1"
       y="1"
       width="1.5"
       height="1.5"
       patternUnits="userSpaceOnUse">
      <line
         x1="0"
         y1="0"
         x2="1"
         y2="1"
         style="stroke-width:0.2; stroke:black; stroke-dasharray:none;"
         id="line9" />
      <line
         x1="0"
         y1="1"
         x2="1"
         y2="0"
         style="stroke-width:0.2; stroke:black; stroke-dasharray:none;"
         id="line11" />
    </pattern>
    <pattern
       id="revside-fill-e0e0e0"
       x="1"
       y="1"
       width="1.5"
       height="1.5"
       patternUnits="userSpaceOnUse">
      <line
         x1="0"
         y1="0"
         x2="1.5"
         y2="1.5"
         style="stroke-width:0.2; stroke:#e0e0e0; stroke-dasharray:none;"
         id="line14" />
      <line
         x1="0"
         y1="1.5"
         x2="1.5"
         y2="0"
         style="stroke-width:0.2; stroke:#e0e0e0; stroke-dasharray:none;"
         id="line16" />
    </pattern>
  </defs>
  <g
     transform="matrix(1,0,0,-1,77.521874,228.30489)"
     style="fill-rule:evenodd;stroke-linecap:round;stroke-linejoin:round;stroke-opacity:1"
     id="g18">
    <path
       d="m 70.78,128.4 -70.78,0 0,0 L 0,0 l 0,0 70.78,0 0,0 0,128.4 0,0 z"
       vector-effect="non-scaling-stroke"
       id="path20"
       inkscape:connector-curvature="0"
       style="fill:#cccccc;stroke:#000000;stroke-width:0.1mm" />
    <circle
       cx="8.5"
       cy="35"
       r="3.1500001"
       vector-effect="non-scaling-stroke"
       id="circle22"
       d="m 11.65,35 c 0,1.739697 -1.410303,3.15 -3.15,3.15 -1.739697,0 -3.1500001,-1.410303 -3.1500001,-3.15 0,-1.739697 1.4103031,-3.15 3.1500001,-3.15 1.739697,0 3.15,1.410303 3.15,3.15 z"
       style="fill:#00ff00;stroke:#000000;stroke-width:0.84666669;stroke-miterlimit:4;stroke-dasharray:none"
       sodipodi:cx="8.5"
       sodipodi:cy="35"
       sodipodi:rx="3.1500001"
       sodipodi:ry="3.1500001" />
    <circle
       cx="18"
       cy="35"
       r="3.1500001"
       vector-effect="non-scaling-stroke"
       id="circle24"
       d="m 21.15,35 c 0,1.739697 -1.410303,3.15 -3.15,3.15 -1.739697,0 -3.15,-1.410303 -3.15,-3.15 0,-1.739697 1.410303,-3.15 3.15,-3.15 1.739697,0 3.15,1.410303 3.15,3.15 z"
       style="fill:#ffff00;stroke:#000000;stroke-width:0.1mm"
       sodipodi:cx="18"
       sodipodi:cy="35"
       sodipodi:rx="3.1500001"
       sodipodi:ry="3.1500001" />
    <circle
       cx="27.5"
       cy="35"
       r="3.1500001"
       vector-effect="non-scaling-stroke"
       id="circle26"
       d="m 30.65,35 c 0,1.739697 -1.410303,3.15 -3.15,3.15 -1.739697,0 -3.15,-1.410303 -3.15,-3.15 0,-1.739697 1.410303,-3.15 3.15,-3.15 1.739697,0 3.15,1.410303 3.15,3.15 z"
       style="fill:#ffff00;stroke:#000000;stroke-width:0.1mm"
       sodipodi:cx="27.5"
       sodipodi:cy="35"
       sodipodi:rx="3.1500001"
       sodipodi:ry="3.1500001" />
    <circle
       cx="42.5"
       cy="35"
       r="3.1500001"
       vector-effect="non-scaling-stroke"
       id="circle28"
       d="m 45.65,35 c 0,1.739697 -1.410303,3.15 -3.15,3.15 -1.739697,0 -3.15,-1.410303 -3.15,-3.15 0,-1.739697 1.410303,-3.15 3.15,-3.15 1.739697,0 3.15,1.410303 3.15,3.15 z"
       style="fill:#00ffff;stroke:#000000;stroke-width:0.1mm"
       sodipodi:cx="42.5"
       sodipodi:cy="35"
       sodipodi:rx="3.1500001"
       sodipodi:ry="3.1500001" />
    <circle
       cx="52"
       cy="35"
       r="3.1500001"
       vector-effect="non-scaling-stroke"
       id="circle30"
       d="m 55.15,35 c 0,1.739697 -1.410303,3.15 -3.15,3.15 -1.739697,0 -3.15,-1.410303 -3.15,-3.15 0,-1.739697 1.410303,-3.15 3.15,-3.15 1.739697,0 3.15,1.410303 3.15,3.15 z"
       style="fill:#00ffff;stroke:#000000;stroke-width:0.1mm"
       sodipodi:cx="52"
       sodipodi:cy="35"
       sodipodi:rx="3.1500001"
       sodipodi:ry="3.1500001" />
    <circle
       cx="61.5"
       cy="35"
       r="3.1500001"
       vector-effect="non-scaling-stroke"
       id="circle32"
       d="m 64.65,35 c 0,1.739697 -1.410303,3.15 -3.15,3.15 -1.739697,0 -3.15,-1.410303 -3.15,-3.15 0,-1.739697 1.410303,-3.15 3.15,-3.15 1.739697,0 3.15,1.410303 3.15,3.15 z"
       style="fill:#00ffff;stroke:#000000;stroke-width:0.1mm"
       sodipodi:cx="61.5"
       sodipodi:cy="35"
       sodipodi:rx="3.1500001"
       sodipodi:ry="3.1500001" />
    <circle
       cx="56.799999"
       cy="66.5"
       r="4.5"
       vector-effect="non-scaling-stroke"
       id="circle34"
       d="m 61.299999,66.5 c 0,2.485281 -2.014718,4.5 -4.5,4.5 -2.485281,0 -4.5,-2.014719 -4.5,-4.5 0,-2.485281 2.014719,-4.5 4.5,-4.5 2.485282,0 4.5,2.014719 4.5,4.5 z"
       style="fill:#333333;stroke:#000000;stroke-width:0.1mm"
       sodipodi:cx="56.799999"
       sodipodi:cy="66.5"
       sodipodi:rx="4.5"
       sodipodi:ry="4.5" />
    <circle
       cx="12.9"
       cy="66.5"
       r="4.5"
       vector-effect="non-scaling-stroke"
       id="circle36"
       d="m 17.4,66.5 c 0,2.485281 -2.014719,4.5 -4.5,4.5 -2.485282,0 -4.5000004,-2.014719 -4.5000004,-4.5 0,-2.485281 2.0147184,-4.5 4.5000004,-4.5 2.485281,0 4.5,2.014719 4.5,4.5 z"
       style="fill:#333333;stroke:#000000;stroke-width:0.1mm"
       sodipodi:cx="12.9"
       sodipodi:cy="66.5"
       sodipodi:rx="4.5"
       sodipodi:ry="4.5" />
    <circle
       cx="56.799999"
       cy="90.599998"
       r="3.75"
       vector-effect="non-scaling-stroke"
       id="circle38"
       d="m 60.549999,90.599998 c 0,2.071068 -1.678932,3.75 -3.75,3.75 -2.071068,0 -3.75,-1.678932 -3.75,-3.75 0,-2.071067 1.678932,-3.75 3.75,-3.75 2.071068,0 3.75,1.678933 3.75,3.75 z"
       style="fill:#800000;stroke:#000000;stroke-width:0.1mm"
       sodipodi:cx="56.799999"
       sodipodi:cy="90.599998"
       sodipodi:rx="3.75"
       sodipodi:ry="3.75" />
    <circle
       cx="56.799999"
       cy="109.4"
       r="3.75"
       vector-effect="non-scaling-stroke"
       id="circle40"
       d="m 60.549999,109.4 c 0,2.07107 -1.678932,3.75 -3.75,3.75 -2.071068,0 -3.75,-1.67893 -3.75,-3.75 0,-2.07107 1.678932,-3.75 3.75,-3.75 2.071068,0 3.75,1.67893 3.75,3.75 z"
       style="fill:#800000;stroke:#000000;stroke-width:0.1mm"
       sodipodi:cx="56.799999"
       sodipodi:cy="109.4"
       sodipodi:rx="3.75"
       sodipodi:ry="3.75" />
    <rect
       x="7.684"
       y="91.628998"
       width="33"
       height="17.5"
       rx="1.5"
       vector-effect="non-scaling-stroke"
       id="rect42"
       style="fill:#1a1a1a;stroke:#000000;stroke-width:0.1mm" />
    <circle
       cx="8.5"
       cy="23"
       r="3.1500001"
       vector-effect="non-scaling-stroke"
       id="circle44"
       d="m 11.65,23 c 0,1.739697 -1.410303,3.15 -3.15,3.15 -1.739697,0 -3.1500001,-1.410303 -3.1500001,-3.15 0,-1.739697 1.4103031,-3.15 3.1500001,-3.15 1.739697,0 3.15,1.410303 3.15,3.15 z"
       style="fill:#00ff00;stroke:#000000;stroke-width:0.84666669;stroke-miterlimit:4;stroke-dasharray:none"
       sodipodi:cx="8.5"
       sodipodi:cy="23"
       sodipodi:rx="3.1500001"
       sodipodi:ry="3.1500001" />
    <circle
       cx="18"
       cy="23"
       r="3.1500001"
       vector-effect="non-scaling-stroke"
       id="circle46"
       d="m 21.15,23 c 0,1.739697 -1.410303,3.15 -3.15,3.15 -1.739697,0 -3.15,-1.410303 -3.15,-3.15 0,-1.739697 1.410303,-3.15 3.15,-3.15 1.739697,0 3.15,1.410303 3.15,3.15 z"
       style="fill:#ffff00;stroke:#000000;stroke-width:0.1mm"
       sodipodi:cx="18"
       sodipodi:cy="23"
       sodipodi:rx="3.1500001"
       sodipodi:ry="3.1500001" />
    <circle
       cx="27.5"
       cy="23"
       r="3.1500001"
       vector-effect="non-scaling-stroke"
       id="circle48"
       d="m 30.65,23 c 0,1.739697 -1.410303,3.15 -3.15,3.15 -1.739697,0 -3.15,-1.410303 -3.15,-3.15 0,-1.739697 1.410303,-3.15 3.15,-3.15 1.739697,0 3.15,1.410303 3.15,3.15 z"
       style="fill:#ffff00;stroke:#000000;stroke-width:0.1mm"
       sodipodi:cx="27.5"
       sodipodi:cy="23"
       sodipodi:rx="3.1500001"
       sodipodi:ry="3.1500001" />
    <circle
       cx="42.5"
       cy="23"
       r="3.1500001"
       vector-effect="non-scaling-stroke"
       id="circle50"
       d="m 45.65,23 c 0,1.739697 -1.410303,3.15 -3.15,3.15 -1.739697,0 -3.15,-1.410303 -3.15,-3.15 0,-1.739697 1.410303,-3.15 3.15,-3.15 1.739697,0 3.15,1.410303 3.15,3.15 z"
       style="fill:#00ffff;stroke:#000000;stroke-width:1.00358224;stroke-miterlimit:4;stroke-dasharray:none"
       sodipodi:cx="42.5"
       sodipodi:cy="23"
       sodipodi:rx="3.1500001"
       sodipodi:ry="3.1500001" />
    <circle
       cx="52"
       cy="23"
       r="3.1500001"
       vector-effect="non-scaling-stroke"
       id="circle52"
       d="m 55.15,23 c 0,1.739697 -1.410303,3.15 -3.15,3.15 -1.739697,0 -3.15,-1.410303 -3.15,-3.15 0,-1.739697 1.410303,-3.15 3.15,-3.15 1.739697,0 3.15,1.410303 3.15,3.15 z"
       style="fill:#00ffff;stroke:#000000;stroke-width:0.1mm"
       sodipodi:cx="52"
       sodipodi:cy="23"
       sodipodi:rx="3.1500001"
       sodipodi:ry="3.1500001" />
    <circle
       cx="61.5"
       cy="23"
       r="3.1500001"
       vector-effect="non-scaling-stroke"
       id="circle54"
       d="m 64.65,23 c 0,1.739697 -1.410303,3.15 -3.15,3.15 -1.739697,0 -3.15,-1.410303 -3.15,-3.15 0,-1.739697 1.410303,-3.15 3.15,-3.15 1.739697,0 3.15,1.410303 3.15,3.15 z"
       style="fill:#00ffff;stroke:#000000;stroke-width:0.1mm"
       sodipodi:cx="61.5"
       sodipodi:cy="23"
       sodipodi:rx="3.1500001"
       sodipodi:ry="3.1500001" />
    <path
       d="M 4.669,3.983 A 1,1 0 0 0 5.612,4.65 l 3.676,0 a 1,1 0 0 0 0.943,-0.667 2.95,2.95 0 0 0 0,-1.966 A 1,1 0 0 0 9.288,1.35 l -3.676,0 a 1,1 0 0 0 -0.943,0.667 2.95,2.95 0 0 0 0,1.966 z"
       vector-effect="non-scaling-stroke"
       id="path56"
       inkscape:connector-curvature="0"
       style="fill:#ffffff;stroke:#000000;stroke-width:0.1mm" />
    <path
       d="m 4.669,126.383 a 1,1 0 0 0 0.943,0.667 l 3.676,0 a 1,1 0 0 0 0.943,-0.667 2.95,2.95 0 0 0 0,-1.966 1,1 0 0 0 -0.943,-0.667 l -3.676,0 a 1,1 0 0 0 -0.943,0.667 2.95,2.95 0 0 0 0,1.966 z"
       vector-effect="non-scaling-stroke"
       id="path58"
       inkscape:connector-curvature="0"
       style="fill:#ffffff;stroke:#000000;stroke-width:0.1mm" />
    <path
       d="m 60.549,3.983 a 1,1 0 0 0 0.943,0.667 l 3.676,0 a 1,1 0 0 0 0.943,-0.667 2.95,2.95 0 0 0 0,-1.966 1,1 0 0 0 -0.943,-0.667 l -3.676,0 a 1,1 0 0 0 -0.943,0.667 2.95,2.95 0 0 0 0,1.966 z"
       vector-effect="non-scaling-stroke"
       id="path60"
       inkscape:connector-curvature="0"
       style="fill:#ffffff;stroke:#000000;stroke-width:0.1mm" />
    <path
       d="m 60.549,126.383 a 1,1 0 0 0 0.943,0.667 l 3.676,0 a 1,1 0 0 0 0.943,-0.667 2.95,2.95 0 0 0 0,-1.966 1,1 0 0 0 -0.943,-0.667 l -3.676,0 a 1,1 0 0 0 -0.943,0.667 2.95,2.95 0 0 0 0,1.966 z"
       vector-effect="non-scaling-stroke"
       id="path62"
       inkscape:connector-curvature="0"
       style="fill:#ffffff;stroke:#000000;stroke-width:0.1mm" />
  </g>
  <text
     xml:space="preserve"
     style="font-size:11.28888988px;font-style:normal;font-variant:normal;font-weight:normal;font-stretch:normal;text-align:start;line-height:125%;letter-spacing:0px;word-spacing:0px;writing-mode:lr-tb;text-anchor:start;fill:#000000;fill-opacity:1;stroke:none;font-family:Century Gothic;-inkscape-font-specification:Century Gothic"
     x="152.99202"
     y="121.09496"
     id="text3043"
     sodipodi:linespacing="125%"><tspan
       sodipodi:role="line"
       id="tspan3045"
       x="152.99202"
       y="121.09496"
       style="font-size:3.95111132px">channel select</tspan></text>
  <path
     style="fill:none;stroke:#000000;stroke-width:0.28222224px;stroke-linecap:butt;stroke-linejoin:miter;stroke-opacity:1"
     d="m 141.32864,119.09715 9.81642,0"
     id="path3047"
     inkscape:connector-curvature="0" />
  <path
     style="fill:none;stroke:#000000;stroke-width:0.28222224px;stroke-linecap:butt;stroke-linejoin:miter;stroke-opacity:1"
     d="m 142.7602,117.05206 -2.45411,2.2496 3.47665,1.22705 z"
     id="path3049"
     inkscape:connector-curvature="0" />
  <path
     style="fill:none;stroke:#000000;stroke-width:0.28222224px;stroke-linecap:butt;stroke-linejoin:miter;stroke-opacity:1"
     d="m 141.73765,137.70746 16.1562,0 z"
     id="path3051"
     inkscape:connector-curvature="0" />
  <path
     style="fill:none;stroke:#000000;stroke-width:0.28222224px;stroke-linecap:butt;stroke-linejoin:miter;stroke-opacity:1"
     d="m 144.19176,136.07139 -3.27214,1.43156 2.65861,1.43156 z"
     id="path3053"
     inkscape:connector-curvature="0" />
  <text
     xml:space="preserve"
     style="font-size:11.28888988px;font-style:normal;font-variant:normal;font-weight:normal;font-stretch:normal;text-align:start;line-height:125%;letter-spacing:0px;word-spacing:0px;writing-mode:lr-tb;text-anchor:start;fill:#000000;fill-opacity:1;stroke:none;font-family:Century Gothic;-inkscape-font-specification:Century Gothic"
     x="159.12091"
     y="138.32098"
     id="text3055"
     sodipodi:linespacing="125%"><tspan
       sodipodi:role="line"
       id="tspan3057"
       x="159.12091"
       y="138.32098"
       style="font-size:3.95111132px">bpm/menu</tspan></text>
  <text
     xml:space="preserve"
     style="font-size:11.28888988px;font-style:normal;font-variant:normal;font-weight:normal;font-stretch:normal;text-align:start;line-height:125%;letter-spacing:0px;word-spacing:0px;writing-mode:lr-tb;text-anchor:start;fill:#000000;fill-opacity:1;stroke:none;font-family:Century Gothic;-inkscape-font-specification:Century Gothic"
     x="153.39465"
     y="163.47557"
     id="text3059"
     sodipodi:linespacing="125%"><tspan
       sodipodi:role="line"
       id="tspan3061"
       x="153.39465"
       y="163.47557"
       style="font-size:3.95111132px">param select</tspan></text>
  <path
     style="fill:none;stroke:#000000;stroke-width:0.28222224px;stroke-linecap:butt;stroke-linejoin:miter;stroke-opacity:1"
     d="m 141.94216,162.45303 9.81643,-0.20451"
     id="path3063"
     inkscape:connector-curvature="0" />
  <path
     style="fill:none;stroke:#000000;stroke-width:0.28222224px;stroke-linecap:butt;stroke-linejoin:miter;stroke-opacity:1"
     d="m 144.19176,160.20343 -2.86312,2.04509 3.68115,2.2496 z"
     id="path3065"
     inkscape:connector-curvature="0" />
  <text
     xml:space="preserve"
     style="font-size:11.28888988px;font-style:normal;font-variant:normal;font-weight:normal;font-stretch:normal;text-align:start;line-height:125%;letter-spacing:0px;word-spacing:0px;writing-mode:lr-tb;text-anchor:start;fill:#000000;fill-opacity:1;stroke:none;font-family:Century Gothic;-inkscape-font-specification:Century Gothic"
     x="44.403477"
     y="161.00269"
     id="text3067"
     sodipodi:linespacing="125%"><tspan
       sodipodi:role="line"
       id="tspan3069"
       x="44.403477"
       y="161.00269"
       style="font-size:3.66888905px">mode select</tspan></text>
  <path
     style="fill:none;stroke:#000000;stroke-width:0.28222224px;stroke-linecap:butt;stroke-linejoin:miter;stroke-opacity:1"
     d="m 68.266857,159.90454 14.316351,1.01227 -2.458363,-2.31375 -0.578439,3.75985 2.458364,-1.59071 0,0 0,0"
     id="path3073"
     inkscape:connector-curvature="0" />
  <path
     style="fill:none;stroke:#000000;stroke-width:0.28222224px;stroke-linecap:butt;stroke-linejoin:miter;stroke-opacity:1"
     d="m 172.2984,199.56945 -28.9875,0 6.80576,-2.52065 -0.25206,6.30163 -6.5537,-3.78098"
     id="path3075"
     inkscape:connector-curvature="0" />
  <text
     xml:space="preserve"
     style="font-size:11.28888988px;font-style:normal;font-variant:normal;font-weight:normal;font-stretch:normal;text-align:start;line-height:125%;letter-spacing:0px;word-spacing:0px;writing-mode:lr-tb;text-anchor:start;fill:#000000;fill-opacity:1;stroke:none;font-family:Century Gothic;-inkscape-font-specification:Century Gothic"
     x="174.56699"
     y="199.82153"
     id="text3077"
     sodipodi:linespacing="125%"><tspan
       sodipodi:role="line"
       id="tspan3079"
       x="174.56699"
       y="199.82153"
       style="font-size:3.38666677px">clock out 1-6</tspan></text>
  <path
     style="fill:none;stroke:#000000;stroke-width:0.28222224px;stroke-linecap:butt;stroke-linejoin:miter;stroke-opacity:1"
     d="m 120.62503,211.16445 8.06608,21.17348 0,0"
     id="path3081"
     inkscape:connector-curvature="0" />
  <path
     style="fill:none;stroke:#000000;stroke-width:0.28222224px;stroke-linecap:butt;stroke-linejoin:miter;stroke-opacity:1"
     d="m 120.37296,212.42478 0,5.29337 5.0413,-2.77272 -4.78923,-3.78098"
     id="path3083"
     inkscape:connector-curvature="0"
     sodipodi:nodetypes="cccc" />
  <text
     xml:space="preserve"
     style="font-size:11.28888988px;font-style:normal;font-variant:normal;font-weight:normal;font-stretch:normal;text-align:start;line-height:125%;letter-spacing:0px;word-spacing:0px;writing-mode:lr-tb;text-anchor:start;fill:#000000;fill-opacity:1;stroke:none;font-family:Century Gothic;-inkscape-font-specification:Century Gothic"
     x="130.70764"
     y="235.36275"
     id="text3085"
     sodipodi:linespacing="125%"><tspan
       sodipodi:role="line"
       id="tspan3087"
       x="130.70764"
       y="235.36275"
       style="font-size:3.66888905px">dac (A14)</tspan></text>
  <path
     style="fill:none;stroke:#000000;stroke-width:0.28222224px;stroke-linecap:butt;stroke-linejoin:miter;stroke-opacity:1"
     d="M 57.983409,190.85617 78.607342,190.5848"
     id="path3857"
     inkscape:connector-curvature="0" />
  <path
     style="fill:none;stroke:#000000;stroke-width:0.28222224px;stroke-linecap:butt;stroke-linejoin:miter;stroke-opacity:1"
     d="m 75.079564,188.41386 -0.271368,4.07051 4.070514,-1.6282 z"
     id="path3859"
     inkscape:connector-curvature="0" />
  <text
     xml:space="preserve"
     style="font-size:11.28888988px;font-style:normal;font-variant:normal;font-weight:normal;font-stretch:normal;text-align:start;line-height:125%;letter-spacing:0px;word-spacing:0px;writing-mode:lr-tb;text-anchor:start;fill:#000000;fill-opacity:1;stroke:none;font-family:Century Gothic;-inkscape-font-specification:Century Gothic"
     x="46.857338"
     y="190.85617"
     id="text3861"
     sodipodi:linespacing="125%"><tspan
       sodipodi:role="line"
       id="tspan3863"
       x="46.857338"
       y="190.85617"
       style="font-size:3.66888905px">clk in</tspan></text>
  <text
     sodipodi:linespacing="125%"
     id="text3865"
     y="206.59549"
     x="47.400074"
     style="font-size:11.28888988px;font-style:normal;font-variant:normal;font-weight:normal;font-stretch:normal;text-align:start;line-height:125%;letter-spacing:0px;word-spacing:0px;writing-mode:lr-tb;text-anchor:start;fill:#000000;fill-opacity:1;stroke:none;font-family:Century Gothic;-inkscape-font-specification:Century Gothic"
     xml:space="preserve"><tspan
       style="font-size:3.66888905px"
       y="206.59549"
       x="47.400074"
       id="tspan3867"
       sodipodi:role="line">reset </tspan></text>
  <path
     style="fill:none;stroke:#000000;stroke-width:0.28222224px;stroke-linecap:butt;stroke-linejoin:miter;stroke-opacity:1"
     d="m 58.526145,204.96728 20.081197,0 -4.341881,-2.17094 0,4.34188 3.799146,-1.62821"
     id="path3871"
     inkscape:connector-curvature="0" />
  <path
     style="fill:none;stroke:#000000;stroke-width:0.28222224px;stroke-linecap:butt;stroke-linejoin:miter;stroke-opacity:1"
     d="m 100.58811,232.64677 0,-21.43804 -1.899566,3.79915 3.799136,0.27137 -1.89957,-4.07052"
     id="path3873"
     inkscape:connector-curvature="0" />
  <text
     xml:space="preserve"
     style="font-size:11.28888988px;font-style:normal;font-variant:normal;font-weight:normal;font-stretch:normal;text-align:start;line-height:125%;letter-spacing:0px;word-spacing:0px;writing-mode:lr-tb;text-anchor:start;fill:#000000;fill-opacity:1;stroke:none;font-family:Century Gothic;-inkscape-font-specification:Century Gothic"
     x="87.019737"
     y="238.07414"
     id="text3875"
     sodipodi:linespacing="125%"><tspan
       sodipodi:role="line"
       id="tspan3877"
       x="87.019737"
       y="238.07414"
       style="font-size:3.95111132px">param CV1-4</tspan></text>
  <text
     xml:space="preserve"
     style="font-size:11.28888988px;font-style:normal;font-variant:normal;font-weight:normal;font-stretch:normal;text-align:start;line-height:125%;letter-spacing:0px;word-spacing:0px;writing-mode:lr-tb;text-anchor:start;fill:#000000;fill-opacity:1;stroke:none;font-family:Century Gothic;-inkscape-font-specification:Century Gothic"
     x="96.788963"
     y="107.54634"
     id="text3879"
     sodipodi:linespacing="125%"><tspan
       sodipodi:role="line"
       id="tspan3881"
       x="96.788963"
       y="107.54634"
       style="font-size:6.20888948px">temps<tspan
   style="font-size:6.20888948px;font-weight:bold;-inkscape-font-specification:Century Gothic Bold"
   id="tspan3883">utile</tspan></tspan></text>
  <text
     xml:space="preserve"
     style="font-size:11.28888988px;font-style:normal;font-variant:normal;font-weight:normal;font-stretch:normal;text-align:start;line-height:125%;letter-spacing:0px;word-spacing:0px;writing-mode:lr-tb;text-anchor:start;fill:#000000;fill-opacity:1;stroke:none;font-family:Century Gothic;-inkscape-font-specification:Century Gothic"
     x="10.394997"
     y="103.47581"
     id="text3054"
     sodipodi:linespacing="125%"><tspan
       sodipodi:role="line"
       id="tspan3056"
       x="10.394997"
       y="103.47581"
       style="font-size:3.95111132px;font-weight:bold;-inkscape-font-specification:Century Gothic Bold">UI for example firmware</tspan><tspan
       sodipodi:role="line"
       x="10.394997"
       y="108.4147"
       style="font-size:3.95111132px;font-weight:normal;text-align:start;text-anchor:start;-inkscape-font-specification:Century Gothic"
       id="tspan3058">keep in mind these are</tspan><tspan
       sodipodi:role="line"
       x="10.394997"
       y="113.35359"
       style="font-size:3.95111132px;font-weight:normal;text-align:start;text-anchor:start;-inkscape-font-specification:Century Gothic"
       id="tspan3060">perfectly/easily</tspan><tspan
       sodipodi:role="line"
       x="10.394997"
       y="118.29248"
       style="font-size:3.95111132px;font-weight:normal;text-align:start;text-anchor:start;-inkscape-font-specification:Century Gothic"
       id="tspan3070">reprogrammable, so you</tspan><tspan
       sodipodi:role="line"
       x="10.394997"
       y="123.23137"
       style="font-size:3.95111132px;font-weight:normal;text-align:start;text-anchor:start;-inkscape-font-specification:Century Gothic"
       id="tspan3062">might want to opt for</tspan><tspan
       sodipodi:role="line"
       x="10.394997"
       y="128.17026"
       style="font-size:3.95111132px;font-weight:normal;text-align:start;text-anchor:start;-inkscape-font-specification:Century Gothic"
       id="tspan3066">something more generic</tspan></text>
</svg>
